<svg width="141" height="60" viewBox="0 0 141 60" fill="none" xmlns="http://www.w3.org/2000/svg">
    <path d="M39.0697 42.2093C42.4065 41.8233 44.5229 39.4712 44.5294 36.1843C44.5412 30.1482 44.5343 24.1122 44.5377 18.0761C44.5387 16.2367 43.7411 14.8641 42.1571 13.935C36.6783 10.7213 31.1939 7.51707 25.7305 4.2774C24.6542 3.63915 23.6956 3.59503 22.6016 4.24405C17.1133 7.50015 11.603 10.7192 6.09778 13.9468C4.50948 14.878 3.74062 16.2449 3.74541 18.094C3.76098 24.1006 3.74932 30.1073 3.75172 36.1139C3.75318 39.7471 6.20677 42.2128 9.83731 42.2295C11.545 42.2374 13.2529 42.2243 14.9606 42.2358C16.2501 42.2444 17.0543 42.9842 17.0354 44.114C17.017 45.2087 16.2394 45.9125 14.9674 45.8905C12.4994 45.8478 9.98973 46.0266 7.57363 45.6386C3.2613 44.9459 0.0811009 41.0161 0.0436122 36.6346C-0.0105517 30.3046 -0.0218186 23.9731 0.0535094 17.6435C0.0881296 14.7347 1.45756 12.4267 3.96759 10.9314C9.65227 7.54479 15.3655 4.20584 21.0842 0.876941C23.105 -0.299324 25.1831 -0.290858 27.2097 0.893808C32.8705 4.20301 38.5281 7.51803 44.1728 10.8548C46.8849 12.4581 48.2182 14.9004 48.2314 18.0254C48.2572 24.1496 48.2479 30.2741 48.2289 36.3984C48.2124 41.6747 44.0106 45.877 38.746 45.8933C33.9467 45.9081 29.1472 45.9009 24.3478 45.8957C22.3304 45.8936 21.1006 44.6721 21.0824 42.6677C21.0739 41.7272 21.0809 40.7866 21.0809 39.7852C23.1066 39.7852 25.0916 39.7852 27.1764 39.7852C27.1764 40.5632 27.1764 41.3402 27.1764 42.217C31.1787 42.217 35.0828 42.217 39.0697 42.2093Z" fill="black"/>
    <path d="M30.9815 28.4973C29.718 28.4973 28.5429 28.4973 27.2376 28.4973C27.2376 31.1929 27.2376 33.8475 27.2376 36.5545C25.1483 36.5545 23.1886 36.5545 21.1035 36.5545C21.1035 33.9003 21.1035 31.2458 21.1035 28.5063C18.4024 28.5063 15.8244 28.5063 13.1844 28.5063C13.1844 26.4344 13.1844 24.4484 13.1844 22.3408C15.7639 22.3408 18.3623 22.3408 21.046 22.3408C21.046 19.6143 21.046 17.007 21.046 14.3308C23.1158 14.3308 25.0988 14.3308 27.1944 14.3308C27.1944 16.9763 27.1944 19.6106 27.1944 22.3198C29.8885 22.3198 32.4714 22.3198 35.1075 22.3198C35.1075 24.3856 35.1075 26.3747 35.1075 28.4973C33.7514 28.4973 32.4106 28.4973 30.9815 28.4973Z" fill="#3553AB"/>
    <path d="M88.0016 15.6738C87.9307 15.5054 87.8852 15.4056 87.8397 15.3058C87.7847 15.3073 87.7296 15.3089 87.6746 15.3104C87.4519 18.0319 87.2291 20.7533 87.0021 23.5274C85.9365 23.5274 84.8935 23.5274 83.7204 23.5274C84.1465 18.764 84.5726 14.0011 85.0081 9.13397C86.0758 9.13397 87.0963 9.09288 88.1087 9.16489C88.3412 9.18143 88.6414 9.54867 88.7488 9.81879C89.7256 12.2744 90.6666 14.7443 91.6851 17.3838C91.8593 17.0117 91.9865 16.7782 92.0811 16.5321C92.9343 14.3123 93.8002 12.0971 94.618 9.86421C94.8219 9.30733 95.0836 9.07963 95.6952 9.12176C96.5705 9.18203 97.453 9.13711 98.4152 9.13711C98.8493 13.9538 99.278 18.712 99.7122 23.5293C98.6053 23.5293 97.5606 23.5293 96.423 23.5293C96.2024 20.8285 95.9815 18.1242 95.7607 15.42C95.7028 15.4024 95.6449 15.3848 95.587 15.3672C95.477 15.6363 95.3547 15.9012 95.2589 16.1753C94.5514 18.1991 93.8481 20.2245 93.1455 22.2501C92.7055 23.5187 92.7071 23.5198 91.306 23.4973C91.1317 23.4945 90.9576 23.4824 90.7246 23.472C89.8254 20.8953 88.9261 18.3188 88.0016 15.6738Z" fill=" #3553AB"/>
    <path d="M71.067 22.1933C67.1024 18.4439 67.797 12.2337 72.4101 9.71433C76.8158 7.30829 82.5131 10.3755 82.9695 15.3772C83.2158 18.0762 82.5001 20.4063 80.4003 22.1815C77.7552 24.4177 74.0016 24.4103 71.067 22.1933ZM72.1726 15.103C72.1662 15.9204 72.0602 16.752 72.1735 17.5524C72.4368 19.4112 73.7616 20.5637 75.5667 20.6406C77.4427 20.7204 78.836 19.7835 79.2281 17.9093C79.4372 16.9099 79.4373 15.788 79.2125 14.7935C78.7776 12.8703 77.4071 11.9816 75.4515 12.0768C73.8767 12.1535 72.8404 13.0754 72.1726 15.103Z" fill=" #3553AB"/>
    <path d="M55.7794 15.4532C55.7794 13.3143 55.7794 11.2637 55.7794 9.17175C56.904 9.17175 57.9231 9.17175 59.0556 9.17175C59.0556 11.0524 59.0556 12.9405 59.0556 14.8671C60.6539 14.8671 62.1393 14.8671 63.719 14.8671C63.719 12.9703 63.719 11.1048 63.719 9.1859C64.8525 9.1859 65.8923 9.1859 66.9833 9.1859C66.9833 13.9639 66.9833 18.7148 66.9833 23.5256C65.9421 23.5256 64.8971 23.5256 63.7438 23.5256C63.7438 21.6454 63.7438 19.7503 63.7438 17.822C62.146 17.822 60.6554 17.822 59.0996 17.822C59.0996 19.7168 59.0996 21.5897 59.0996 23.5237C57.9928 23.5237 56.9486 23.5237 55.7794 23.5237C55.7794 20.8733 55.7794 18.2074 55.7794 15.4532Z" fill=" #3553AB"/>
    <path d="M104.325 14.1747C104.263 14.7329 104.421 14.936 104.948 14.9221C106.297 14.8863 107.647 14.9101 109.045 14.9101C109.045 15.8824 109.045 16.8074 109.045 17.7926C107.495 17.7926 105.97 17.7926 104.386 17.7926C104.386 18.772 104.386 19.6931 104.386 20.6929C106.013 20.6929 107.62 20.6929 109.259 20.6929C109.259 21.6716 109.259 22.5731 109.259 23.5288C106.549 23.5288 103.857 23.5288 101.104 23.5288C101.104 18.7582 101.104 13.9814 101.104 9.1734C103.836 9.1734 106.529 9.1734 109.259 9.1734C109.259 10.1181 109.259 11.0223 109.259 12.0105C107.648 12.0105 106.046 12.0105 104.327 12.0105C104.327 12.7583 104.327 13.4246 104.325 14.1747Z" fill=" #3553AB"/>
    <path d="M84.2416 32.1622C85.8361 35.9848 84.6523 39.8781 81.3776 41.7525C77.9071 43.7388 73.1572 42.5048 71.2621 39.1245C69.2495 35.5349 70.5398 30.864 74.0499 29.032C77.798 27.0757 82.3489 28.4525 84.2416 32.1622ZM82.5914 32.881C81.4016 30.6579 79.2456 29.5893 76.701 29.9615C74.4382 30.2925 72.7239 31.9408 72.2372 34.2533C71.7464 36.5852 72.7096 38.9219 74.6657 40.1444C76.6822 41.4047 79.5013 41.188 81.3353 39.6317C83.1131 38.123 83.6441 35.4559 82.5914 32.881Z" fill="black"/>
    <path d="M124.091 28.8891C127.109 30.5309 128.406 33.0988 128.012 36.5531C127.698 39.3074 125.694 41.6151 122.946 42.3864C119.601 43.3251 116.153 42.0515 114.476 39.2573C112.836 36.5253 113.23 32.6709 115.383 30.3898C117.499 28.148 120.961 27.5379 124.091 28.8891ZM115.325 36.4385C115.349 36.5235 115.374 36.6079 115.396 36.6935C116.165 39.8199 119.083 41.5741 122.209 40.7878C125.228 40.0284 126.919 37.0575 126.112 33.9305C125.346 30.9592 122.362 29.275 119.303 30.0867C116.536 30.8213 115.102 33.045 115.325 36.4385Z" fill="black"/>
    <path d="M139.821 52.0151C141.267 53.3992 141.02 55.1955 139.261 55.9729C138.497 56.3105 137.635 56.5188 136.802 56.5884C135.249 56.7182 133.685 56.7357 132.125 56.7358C131.282 56.7359 130.39 56.7445 129.814 55.9389C128.176 57.0234 125.897 57.031 124.864 55.9711C122.824 57.251 120.216 56.9487 119.389 55.3322C116.61 56.924 113.604 57.1936 110.507 56.7884C108.025 56.4635 107.23 55.2359 107.811 52.7905C107.866 52.5622 107.926 52.3352 108.011 51.9988C108.329 52.0776 108.628 52.1517 108.978 52.2383C108.945 52.4813 108.929 52.7084 108.882 52.9291C108.522 54.638 108.906 55.359 110.599 55.6215C112.98 55.9907 115.367 55.9224 117.618 54.9332C118.411 54.5847 119.112 54.0244 119.945 53.5038C120.079 53.5789 120.329 53.7196 120.572 53.8557C120.503 55.2059 120.611 55.3961 121.515 55.5433C123.203 55.818 123.961 55.48 124.27 54.2966C124.396 53.8149 124.487 53.3242 124.606 52.7821C124.945 52.8392 125.254 52.8911 125.65 52.9577C125.572 53.4243 125.51 53.8779 125.417 54.3254C125.263 55.0736 125.603 55.4585 126.316 55.5237C126.842 55.5718 127.374 55.5548 127.903 55.5589C128.556 55.5639 128.943 55.2378 129.088 54.603C129.218 54.0335 129.363 53.4675 129.528 52.7945C129.849 52.8419 130.176 52.89 130.578 52.9493C130.486 53.4137 130.392 53.8085 130.333 54.2084C130.208 55.0462 130.486 55.4178 131.326 55.5389C131.587 55.5764 131.855 55.5708 132.12 55.5741C133.114 55.5863 133.364 55.333 133.333 54.3297C133.264 52.1225 133.189 49.9156 133.119 47.7085C133.111 47.448 133.118 47.1869 133.118 46.8805C133.469 46.8805 133.782 46.8805 134.332 46.8805C134.332 49.0496 134.332 51.2289 134.332 53.6413C136.123 52.28 137.596 50.8524 139.821 52.0151ZM138.465 55.2211C139.507 54.7553 139.871 54.234 139.63 53.5514C139.39 52.8734 138.526 52.5337 137.598 52.8249C136.155 53.2778 135.161 54.2865 134.311 55.4514C134.344 55.5333 134.377 55.6152 134.41 55.6972C135.717 55.5539 137.023 55.4107 138.465 55.2211Z" fill="black"/>
    <path d="M56.6351 39.8351C56.6351 35.9902 56.6351 32.2335 56.6351 28.2497C58.9571 28.3984 61.2149 28.315 63.3748 28.735C66.5506 29.3527 68.534 32.3129 68.4123 35.6917C68.291 39.0584 66.0782 41.8471 62.8622 42.2554C60.8487 42.511 58.7763 42.303 56.6351 42.303C56.6351 41.5559 56.6351 40.7396 56.6351 39.8351ZM58.3957 33.5639C58.3957 35.9399 58.3957 38.3159 58.3957 40.7403C59.6072 40.7403 60.7467 40.7982 61.8783 40.7281C64.1702 40.5862 66.0486 38.893 66.4821 36.6648C66.9784 34.1139 65.9154 31.7176 63.8343 30.6638C62.1144 29.7929 60.2829 30.1353 58.3957 30.0689C58.3957 31.2258 58.3957 32.3065 58.3957 33.5639Z" fill="black"/>
    <path d="M131.122 28.4201C132.814 28.3928 134.434 28.3605 136.052 28.3921C138.043 28.4309 139.708 29.1041 140.508 31.0869C141.377 33.2418 140.427 35.539 138.317 36.56C138.165 36.6339 138.01 36.7042 137.774 36.8148C138.865 38.6723 139.93 40.4859 141 42.3091C139.516 42.7295 139.169 42.5892 138.448 41.3455C137.697 40.0489 136.946 38.7514 136.163 37.4733C136.035 37.2638 135.753 37.0307 135.53 37.0179C134.628 36.9662 133.721 36.9965 132.761 36.9965C132.761 38.8195 132.761 40.5757 132.761 42.3987C132.164 42.3987 131.621 42.3987 131.029 42.3987C131.013 42.2763 130.971 42.1079 130.971 41.9395C130.967 37.6712 130.966 33.403 130.971 29.1347C130.971 28.9043 131.021 28.6739 131.122 28.4201ZM138.762 31.5242C138.325 30.667 137.594 30.1816 136.666 30.1334C135.387 30.067 134.102 30.1167 132.786 30.1167C132.786 31.861 132.786 33.5727 132.786 35.2905C133.981 35.2905 135.124 35.3286 136.264 35.2822C138.326 35.1983 139.379 33.6782 138.762 31.5242Z" fill="black"/>
    <path d="M93.8987 40.9181C96.191 40.9232 97.8028 39.9785 98.7816 37.956C98.8886 37.735 99.2879 37.5986 99.576 37.5369C99.9092 37.4655 100.269 37.5203 100.625 37.5203C100.289 40.4939 97.2024 42.7467 93.6752 42.6563C89.8861 42.5593 87.1368 39.7858 86.875 35.7961C86.6191 31.897 89.1959 28.774 93.1199 28.2274C96.5568 27.7486 99.8607 29.8612 100.594 33.0623C100.019 33.0623 99.4551 33.0623 98.8769 33.0623C97.391 30.3362 94.9508 29.2805 92.2117 30.1965C89.687 31.0408 88.3354 33.5128 88.7609 36.508C89.1218 39.0489 91.1372 40.8058 93.8987 40.9181Z" fill="black"/>
    <path d="M85.46 56.5405C84.4417 56.7674 83.4904 56.9217 82.6163 56.2219C81.9508 58.1628 80.5263 59.1893 78.6189 59.8733C78.4876 59.5138 78.3734 59.2009 78.2385 58.8317C79.5204 58.2974 80.7604 57.7464 81.3843 56.4222C82.0477 55.0144 81.4166 53.8013 80.7328 52.517C81.0504 52.3473 81.3446 52.19 81.7792 51.9579C82.1277 52.8371 82.4973 53.6569 82.7769 54.5064C83.0572 55.3583 83.621 55.6071 84.4601 55.583C85.2969 55.559 85.67 55.111 85.8297 54.3691C85.9402 53.8562 86.0599 53.3454 86.1878 52.779C86.5302 52.8382 86.8371 52.8913 87.2261 52.9586C87.1661 53.2933 87.1028 53.6026 87.0565 53.9144C86.97 54.4972 86.8084 55.1066 87.5385 55.4342C88.3474 55.7971 89.4492 55.5984 89.8422 54.9796C90.1409 54.5092 90.3693 53.9944 90.6639 53.521C90.9107 53.1244 91.1627 52.7134 91.4911 52.3882C92.6085 51.2814 93.837 51.4564 94.6007 52.8262C94.9287 53.4145 95.1579 54.0573 95.4713 54.6547C95.9285 55.5261 96.856 55.9096 97.6983 55.452C98.0052 55.2852 98.2513 54.7029 98.2457 54.3142C98.2103 51.8732 98.096 49.4334 98.0037 46.8788C98.344 46.8603 98.6762 46.8424 99.1112 46.8188C99.1778 48.2658 99.2491 49.6623 99.3039 51.0595C99.3444 52.0888 99.3723 53.1189 99.3892 54.1489C99.4041 55.056 99.3513 55.9981 98.3841 56.4117C97.3581 56.8503 96.2793 56.9547 95.2678 56.2822C95.1947 56.2335 95.1281 56.1749 95.0592 56.1215C93.638 57.361 92.6974 57.2109 90.9481 55.4684C89.3546 57.0382 87.7796 57.205 86.4408 55.9273C86.1388 56.1193 85.8306 56.3152 85.46 56.5405ZM94.2296 54.6757C94.1993 54.5933 94.1854 54.4991 94.1361 54.4303C93.7428 53.8825 93.3427 53.3396 92.9448 52.7951C92.3965 53.2156 91.8482 53.6362 91.0715 54.2319C91.881 54.8472 92.3971 55.3778 93.0234 55.68C93.7746 56.0426 94.1991 55.6852 94.2296 54.6757Z" fill="black"/>
    <path d="M109.958 28.3839C110.689 28.3839 111.332 28.3839 112.034 28.3839C112.034 28.9485 112.034 29.4584 112.034 30.0671C111.326 30.0671 110.627 30.0671 109.927 30.0671C109.257 30.0671 108.588 30.0671 107.846 30.0671C107.846 34.2236 107.846 38.2993 107.846 42.422C107.255 42.422 106.736 42.422 106.109 42.422C106.109 38.3359 106.109 34.238 106.109 30.06C104.635 30.06 103.266 30.06 101.863 30.06C101.863 29.4874 101.863 28.9956 101.863 28.3839C104.537 28.3839 107.204 28.3839 109.958 28.3839Z" fill="black"/>
    <path d="M76.5264 55.0171C76.4418 52.2651 76.357 49.5992 76.2705 46.8829C76.6598 46.8829 76.9983 46.8829 77.4962 46.8829C77.4962 50.0266 77.6911 53.145 77.4432 56.2278C77.1773 59.534 73.2156 61.0552 70.5339 59.0493C69.6701 58.4032 69.2564 57.5042 69.3834 56.4322C69.4682 55.7169 69.6851 55.0172 69.8576 54.2447C70.2602 54.3736 70.5557 54.4683 70.8785 54.5717C70.7595 55.187 70.5871 55.7782 70.5417 56.3791C70.4605 57.4542 70.9862 58.1773 71.9954 58.5183C74.3513 59.3144 76.0938 58.2518 76.4451 55.8031C76.4784 55.5707 76.4994 55.3366 76.5264 55.0171Z" fill="black"/>
    <path d="M102.365 47.4821C102.366 50.5566 102.366 53.5532 102.366 56.5982C102.217 56.5982 101.879 56.5982 101.39 56.5982C101.39 53.3571 101.39 50.1327 101.39 46.8627C101.726 46.9556 102.381 46.4774 102.365 47.4821Z" fill="black"/>
    <path d="M124.198 59.1467C123.37 59.3308 122.866 58.9942 123.137 58.4842C123.267 58.2418 123.772 57.9822 124.002 58.0563C124.493 58.2147 124.583 58.6558 124.198 59.1467Z" fill="black"/>
    <path d="M113.518 59.5528C113.286 59.2565 113.036 58.9858 112.98 58.6796C112.958 58.5593 113.371 58.229 113.582 58.2327C113.795 58.2364 114.207 58.619 114.178 58.6902C114.047 59.0098 113.789 59.2777 113.518 59.5528Z" fill="black"/>
    <path d="M86.0677 50.2713C86.4396 50.2199 86.8064 50.1455 87.0923 50.2648C87.1973 50.3086 87.2114 50.8736 87.0798 51.0831C86.9793 51.243 86.421 51.3419 86.3506 51.2501C86.1622 51.0044 86.1268 50.6414 86.0677 50.2713Z" fill="black"/>
    <path d="M125.046 58.342C125.407 58.2303 125.757 58.0925 126.059 58.1624C126.172 58.1886 126.284 58.7418 126.191 58.9719C126.121 59.145 125.588 59.3367 125.499 59.2563C125.267 59.0482 125.167 58.6942 125.046 58.342Z" fill="black"/>
    <path d="M81.3541 49.3715C81.2735 49.7378 81.2224 50.1077 81.0132 50.3264C80.9309 50.4124 80.4054 50.2321 80.2501 50.0382C80.1353 49.8948 80.2327 49.3395 80.3407 49.3059C80.6377 49.2136 80.9899 49.2993 81.3541 49.3715Z" fill="black"/>
    <path d="M129.156 58.2092C129.533 58.1607 129.89 58.0905 130.181 58.1982C130.288 58.2376 130.346 58.7676 130.23 58.948C130.113 59.1297 129.569 59.2828 129.531 59.2275C129.334 58.9435 129.24 58.5883 129.156 58.2092Z" fill="black"/>
    </svg>
    